<?xml version="1.0" encoding="UTF-8"?>
<svg id="Layer_1" data-name="Layer 1" xmlns="http://www.w3.org/2000/svg" viewBox="0 0 100 100">
  <defs>
    <style>
      .cls-1 {
        fill: #020202;
      }

      .cls-2 {
        fill: #e2c476;
      }

      .cls-3 {
        fill: #242424;
      }
    </style>
  </defs>
  <rect class="cls-3" width="100" height="100"/>
  <g>
    <path class="cls-2" d="M75.19,86.64v2.99c-14.29,0-28.59-.02-42.88-.05-.64,0-.82-.15-.82-.81,.04-7.14-.04-14.29,.06-21.44,.14-12.16,.05-24.34,.08-36.51,0-.68,.2-.85,.86-.84,2.05,.04,4.1,0,6.15,0,0,2.85,.03,5.7,.03,8.55v43.3c0,1.18,.3,2.27,.95,3.23,.65,.96,1.57,1.51,2.74,1.52,4.05,.03,8.1,.04,12.15,.06,.21,0,.44,.06,.61-.15,4.04,.31,8.08,.12,12.14,.13,2.64,0,5.28,.02,7.93,0Z"/>
    <path class="cls-2" d="M85.53,91.88v3.09H27.21c-.17,0-.35-.02-.51,0-.64,.09-.78-.21-.75-.79,.04-1.19,0-2.39,0-3.58,0-5.64-.06-11.27,.03-16.9,.14-9.74,.04-19.47,.09-29.2,0-2.88-.08-5.74-.41-8.6-.25-2.05-1.25-3.17-3.26-3.59-1.12-.24-2.27-.28-3.4-.4-.39-.04-.56-.13-.55-.55,.04-1.69-.18-1.34,1.34-1.35,2.88-.03,5.75,0,8.64-.02,.57,0,.73,.15,.73,.73-.02,12.16,.04,24.34-.06,36.51-.07,7.91-.02,15.8-.08,23.71q0,.94,.95,.94h55.55Z"/>
    <path class="cls-2" d="M55.12,86.5c-.17,.21-.4,.15-.61,.14-4.05-.01-8.1-.02-12.15-.05-1.17,0-2.09-.56-2.73-1.52-.66-.97-.96-2.07-.96-3.24,0-14.43,0-28.86,0-43.29,0-2.85-.02-5.7-.03-8.55,0-5.56,.03-11.12,0-16.68,0-.7,.21-.83,.84-.81,1.81,.04,3.61,.04,5.42,0,.53-.01,.69,.1,.68,.66,0,5.2,.03,10.39,.04,15.59,.04,18.93,.07,37.86,.08,56.78,0,.55,.13,.77,.68,.67,.12-.02,.24,0,.37,0q1.57,0,1.56-1.54c-.04-11.32-.07-22.63-.13-33.95,0-.68,.19-.82,.84-.82,3.46-.03,6.93,.13,10.39-.12,6.32-.45,13.35-5.5,14.44-13.5,.49-3.58,.72-7.18-.38-10.64-1.6-5.07-4.69-8.98-9.92-10.72-2.83-.94-5.72-.79-8.52,.34-2.12,.86-4,3.71-3.96,5.99,.15,8.41,.11,16.83,.17,25.24,0,.59-.18,.71-.7,.66-.77-.08-1.8,.33-2.23-.17-.38-.43-.11-1.44-.11-2.19,0-10.46,0-20.93-.02-31.39,0-.69,.19-.83,.84-.82,4.44,.08,8.88-.18,13.33,0,3.71,.15,7.29,.87,10.68,2.47,5.07,2.39,8.14,6.31,9.34,11.77,1.2,5.46,.36,10.67-2.35,15.44-2.96,5.19-7.75,8.09-13.52,9.4-2.89,.66-5.84,.83-8.8,.84-1.98,0-3.95,.01-5.93,0-.4,0-.53,.1-.53,.52,.03,9.54,.04,19.07,.06,28.61,0,.78,.11,1.56,.36,2.3,.56,1.62,1.76,2.45,3.45,2.59Z"/>
    <g>
      <path class="cls-2" d="M37.75,13.46l-8.88-.03-2.77-8.43-2.77,8.43-8.88,.03,7.17,5.24-2.72,8.45,7.2-5.2,7.2,5.2-2.72-8.45,7.17-5.24Zm-11.64,6.21l-4,2.89,1.51-4.7-3.98-2.91h4.93s1.54-4.7,1.54-4.7l1.54,4.69h4.93s-3.98,2.93-3.98,2.93l1.51,4.7-4-2.89Z"/>
      <polygon class="cls-2" points="29.47 15.91 26.91 15.9 26.11 13.47 25.31 15.9 22.75 15.91 24.82 17.42 24.04 19.86 26.11 18.36 28.19 19.86 27.4 17.42 29.47 15.91"/>
    </g>
    <g>
      <path class="cls-2" d="M37.75,13.46l-8.88-.03-2.77-8.43-2.77,8.43-8.88,.03,7.17,5.24-2.72,8.45,7.2-5.2,7.2,5.2-2.72-8.45,7.17-5.24Zm-11.64,6.21l-4,2.89,1.51-4.7-3.98-2.91h4.93s1.54-4.7,1.54-4.7l1.54,4.69h4.93s-3.98,2.93-3.98,2.93l1.51,4.7-4-2.89Z"/>
      <path class="cls-1" d="M32.58,14.96h-4.93s-1.54-4.7-1.54-4.7l-1.54,4.69h-4.93s3.98,2.93,3.98,2.93l-1.51,4.7,4-2.89,4,2.89-1.51-4.7,3.98-2.91Zm-6.47,3.41l-2.07,1.5,.78-2.44-2.07-1.51h2.56s.8-2.44,.8-2.44l.8,2.43h2.56s-2.07,1.52-2.07,1.52l.78,2.44-2.07-1.5Z"/>
      <polygon class="cls-2" points="29.47 15.91 26.91 15.9 26.11 13.47 25.31 15.9 22.75 15.91 24.82 17.42 24.04 19.86 26.11 18.36 28.19 19.86 27.4 17.42 29.47 15.91"/>
    </g>
  </g>
</svg>